<?xml version="1.0" encoding="utf-8"?>
<svg xmlns="http://www.w3.org/2000/svg" class="logo" style="margin: auto; background: none; display: block; shape-rendering: auto;" width="300" height="300"  preserveAspectRatio="xMidYMid">
<style type="text/css">
  text {
    text-anchor: middle; font-size: 5em; opacity: 0;
  }
 -->
</style>
<g style="transform-origin:140px 140px;transform:scale(1)">
<g transform="translate(140,140)">
  <g transform="translate(0,0)"><g class="path" style="transform: scale(0.91); transform-origin: -119.86px 1.06297px; animation: 1s linear -0.61875s infinite normal forwards running breath-2866b346-9693-4bd6-97f9-10f7259a099d;"><path d="M8.32-13.00L8.32-13.00L8.58-2.60L8.58-2.60Q8.58 0.68 7.72 3.20L7.72 3.20L7.72 3.20Q6.86 5.72 5.62 6.97L5.62 6.97L5.62 6.97Q3.07 9.62 1.14 9.98L1.14 9.98L0.26 10.19L0.26 10.19Q-0.52 10.19-0.52 9.72L-0.52 9.72L-0.26 8.94L-0.26 8.94Q3.54 3.69 3.54-16.85L3.54-16.85L3.54-16.85Q3.54-18.72 3.48-19.66L3.48-19.66L3.48-19.66Q2.39-19.66 1.30-19.50L1.30-19.50L1.25-19.50L1.25-19.50Q0.68-19.50 0.68-20.07L0.68-20.07L0.83-22.05L0.83-22.05Q0.88-22.52 1.56-22.52L1.56-22.52L3.43-22.52L3.43-26.00L3.54-30.94L3.54-30.94Q3.54-31.30 3.67-31.75L3.67-31.75L3.67-31.75Q3.80-32.19 4.78-33.10L4.78-33.10L4.78-33.10Q5.77-34.01 7.70-34.76L7.70-34.76L7.70-34.76Q9.62-35.52 11.00-35.52L11.00-35.52L11.00-35.52Q12.38-35.52 12.38-34.68L12.38-34.68L12.38-34.68Q12.38-34.37 11.91-34.16L11.91-34.16L11.91-34.16Q10.40-33.70 9.44-31.49L9.44-31.49L9.44-31.49Q8.48-29.28 8.48-23.97L8.48-23.97L8.48-22.52L8.48-22.52Q11.13-22.62 11.96-22.78L11.96-22.78L11.96-22.78Q12.32-22.78 12.32-22.15L12.32-22.15L12.32-22.15Q12.32-21.53 11.78-20.62L11.78-20.62L11.78-20.62Q11.23-19.71 10.43-19.68L10.43-19.68L10.43-19.68Q9.62-19.66 8.42-19.71L8.42-19.71L8.42-19.71Q8.32-15.76 8.32-13.00" fill="#220b09" stroke="none" stroke-width="none" transform="translate(-125.78997802734375,13.72797063946724)" style="fill: rgb(34, 11, 9);"></path></g><g class="path" style="transform: scale(0.91); transform-origin: -104.63px 2.31297px; animation: 1s linear -0.5775s infinite normal forwards running breath-2866b346-9693-4bd6-97f9-10f7259a099d;"><path d="M29.22-17.89L28.96-13.94L29.17-12.12L29.17-12.12Q29.17-11.13 27.30-11.13L27.30-11.13L27.30-11.13Q23.50-11.13 23.50-13.99L23.50-13.99L23.50-13.99Q23.50-14.66 23.87-15.86L23.87-15.86L23.87-15.86Q24.23-17.06 24.23-17.94L24.23-17.94L24.23-17.94Q24.23-18.82 23.71-19.47L23.71-19.47L23.71-19.47Q23.19-20.12 22.20-20.12L22.20-20.12L22.20-20.12Q21.22-20.12 20.51-19.42L20.51-19.42L20.51-19.42Q19.81-18.72 19.66-17.99L19.66-17.99L19.45-17.26L19.45-17.26Q19.14-15.65 19.14-11.88L19.14-11.88L19.14-11.88Q19.14-8.11 19.24-5.95L19.24-5.95L19.24-5.95Q19.34-3.80 19.45-2.99L19.45-2.99L19.45-2.99Q19.55-2.18 19.55-2.03L19.55-2.03L19.55-2.03Q19.55-0.73 17.94 0.08L17.94 0.08L17.94 0.08Q16.33 0.88 14.72 0.88L14.72 0.88L14.72 0.88Q13.10 0.88 13.10 0.21L13.10 0.21L13.36-1.40L13.36-1.40Q14.09-5.93 14.09-13.21L14.09-13.21L14.09-13.21Q14.09-20.49 13.57-23.09L13.57-23.09L13.57-23.09Q13.57-23.71 14.66-23.71L14.66-23.71L14.66-23.71Q17.47-23.71 18.41-21.79L18.41-21.79L18.41-21.79Q18.46-21.58 18.59-21.58L18.59-21.58L18.59-21.58Q18.72-21.58 19.29-22.05L19.29-22.05L19.29-22.05Q21.01-23.45 23.35-23.45L23.35-23.45L23.35-23.45Q24.80-23.45 26.26-22.88L26.26-22.88L26.26-22.88Q29.22-21.68 29.22-17.89L29.22-17.89" fill="#220b09" stroke="none" stroke-width="none" transform="translate(-125.78997802734375,13.72797063946724)" style="fill: rgb(211, 76, 49);"></path></g><g class="path" style="transform: scale(0.91); transform-origin: -86.09px 2.41797px; animation: 1s linear -0.53625s infinite normal forwards running breath-2866b346-9693-4bd6-97f9-10f7259a099d;"><path d="M36.50-13.21L36.50-13.21L36.56-11.91L36.56-11.91Q36.56-11.60 36.97-11.60L36.97-11.60L36.97-11.60Q38.64-11.75 39.88-12.45L39.88-12.45L39.88-12.45Q41.13-13.16 41.76-14.04L41.76-14.04L41.76-14.04Q43.00-15.96 43.11-17.37L43.11-17.37L43.16-17.99L43.16-17.99Q43.16-20.80 40.92-20.80L40.92-20.80L40.92-20.80Q39.26-20.80 38.22-19.34L38.22-19.34L38.22-19.34Q36.50-17.06 36.50-13.21zM47.84-6.29L47.84-6.29L47.84-6.29Q47.84-4.32 47.03-2.83L47.03-2.83L47.03-2.83Q46.23-1.35 45.21-0.65L45.21-0.65L45.21-0.65Q44.20 0.05 42.85 0.47L42.85 0.47L42.85 0.47Q41.13 0.99 39.57 0.99L39.57 0.99L39.57 0.99Q35.20 0.99 33.12-2.29L33.12-2.29L33.12-2.29Q31.04-5.56 31.04-10.63L31.04-10.63L31.04-10.63Q31.04-15.70 33.62-19.66L33.62-19.66L33.62-19.66Q36.19-23.61 41.34-23.61L41.34-23.61L41.34-23.61Q46.02-23.61 47.68-20.33L47.68-20.33L47.68-20.33Q48.36-19.08 48.36-17.97L48.36-17.97L48.36-17.97Q48.36-16.85 48.26-16.20L48.26-16.20L48.26-16.20Q48.15-15.55 47.53-14.25L47.53-14.25L47.53-14.25Q46.90-12.95 45.86-11.91L45.86-11.91L45.86-11.91Q44.82-10.87 42.59-9.93L42.59-9.93L42.59-9.93Q40.35-9.00 37.34-8.68L37.34-8.68L37.34-8.68Q36.92-8.68 36.92-8.32L36.92-8.32L36.92-8.32Q36.92-7.85 37.26-6.94L37.26-6.94L37.26-6.94Q37.60-6.03 38.01-5.41L38.01-5.41L38.01-5.41Q39.16-3.95 41.39-3.95L41.39-3.95L41.39-3.95Q43.63-3.95 45.19-5.41L45.19-5.41L45.19-5.41Q46.02-6.19 46.54-7.33L46.54-7.33L46.54-7.33Q46.75-7.75 47.09-7.75L47.09-7.75L47.09-7.75Q47.42-7.75 47.63-7.18L47.63-7.18L47.63-7.18Q47.84-6.60 47.84-6.29" fill="#220b09" stroke="none" stroke-width="none" transform="translate(-125.78997802734375,13.72797063946724)" style="fill: rgb(232, 132, 50);"></path></g><g class="path" style="transform: scale(0.91); transform-origin: -66.95px 2.41797px; animation: 1s linear -0.495s infinite normal forwards running breath-2866b346-9693-4bd6-97f9-10f7259a099d;"><path d="M55.64-13.21L55.64-13.21L55.69-11.91L55.69-11.91Q55.69-11.60 56.11-11.60L56.11-11.60L56.11-11.60Q57.77-11.75 59.02-12.45L59.02-12.45L59.02-12.45Q60.27-13.16 60.89-14.04L60.89-14.04L60.89-14.04Q62.14-15.96 62.24-17.37L62.24-17.37L62.30-17.99L62.30-17.99Q62.30-20.80 60.06-20.80L60.06-20.80L60.06-20.80Q58.40-20.80 57.36-19.34L57.36-19.34L57.36-19.34Q55.64-17.06 55.64-13.21zM66.98-6.29L66.98-6.29L66.98-6.29Q66.98-4.32 66.17-2.83L66.17-2.83L66.17-2.83Q65.36-1.35 64.35-0.65L64.35-0.65L64.35-0.65Q63.34 0.05 61.98 0.47L61.98 0.47L61.98 0.47Q60.27 0.99 58.71 0.99L58.71 0.99L58.71 0.99Q54.34 0.99 52.26-2.29L52.26-2.29L52.26-2.29Q50.18-5.56 50.18-10.63L50.18-10.63L50.18-10.63Q50.18-15.70 52.75-19.66L52.75-19.66L52.75-19.66Q55.33-23.61 60.48-23.61L60.48-23.61L60.48-23.61Q65.16-23.61 66.82-20.33L66.82-20.33L66.82-20.33Q67.50-19.08 67.50-17.97L67.50-17.97L67.50-17.97Q67.50-16.85 67.39-16.20L67.39-16.20L67.39-16.20Q67.29-15.55 66.66-14.25L66.66-14.25L66.66-14.25Q66.04-12.95 65-11.91L65-11.91L65-11.91Q63.96-10.87 61.72-9.93L61.72-9.93L61.72-9.93Q59.49-9.00 56.47-8.68L56.47-8.68L56.47-8.68Q56.06-8.68 56.06-8.32L56.06-8.32L56.06-8.32Q56.06-7.85 56.39-6.94L56.39-6.94L56.39-6.94Q56.73-6.03 57.15-5.41L57.15-5.41L57.15-5.41Q58.29-3.95 60.53-3.95L60.53-3.95L60.53-3.95Q62.76-3.95 64.32-5.41L64.32-5.41L64.32-5.41Q65.16-6.19 65.68-7.33L65.68-7.33L65.68-7.33Q65.88-7.75 66.22-7.75L66.22-7.75L66.22-7.75Q66.56-7.75 66.77-7.18L66.77-7.18L66.77-7.18Q66.98-6.60 66.98-6.29" fill="#220b09" stroke="none" stroke-width="none" transform="translate(-125.78997802734375,13.72797063946724)" style="fill: rgb(255, 49, 45);"></path></g><g class="path" style="transform: scale(0.91); transform-origin: -43.315px -4.55203px; animation: 1s linear -0.45375s infinite normal forwards running breath-2866b346-9693-4bd6-97f9-10f7259a099d;"><path d="M80.76-33.70L80.76-33.70L80.76-33.70Q79.82-33.70 79.14-33.38L79.14-33.38L79.14-33.38Q78.47-33.07 78.47-32.60L78.47-32.60L78.47-32.60Q77.84-30.42 77.84-19.58L77.84-19.58L77.84-19.58Q77.84-8.74 77.79-7.44L77.79-7.44L77.79-7.44Q78.78-5.88 80.86-5.88L80.86-5.88L80.86-5.88Q84.55-5.88 86.42-9.96L86.42-9.96L86.42-9.96Q88.30-14.04 88.30-20.20L88.30-20.20L88.30-20.20Q88.30-26.36 86.48-30.03L86.48-30.03L86.48-30.03Q84.66-33.70 80.76-33.70zM70.82 0.57L70.82 0.57L70.82 0.57Q70.04 0.47 70.04 0.10L70.04 0.10L70.20-0.52L70.20-0.52Q71.50-3.33 71.50-20.75L71.50-20.75L71.50-20.75Q71.50-29.07 71.06-31.15L71.06-31.15L71.06-31.15Q70.62-33.23 70.36-33.80L70.36-33.80L70.10-34.32L70.10-34.32Q69.89-34.53 69.89-34.92L69.89-34.92L69.89-34.92Q69.89-35.31 70.51-35.57L70.51-35.57L70.51-35.57Q74.57-37.18 81.17-37.18L81.17-37.18L81.17-37.18Q95.06-37.18 95.06-19.50L95.06-19.50L95.06-19.50Q95.06-12.58 92.61-6.86L92.61-6.86L92.61-6.86Q91.62-4.68 90.32-3.09L90.32-3.09L90.32-3.09Q89.02-1.51 86.92-0.44L86.92-0.44L86.92-0.44Q84.81 0.62 82.26 0.62L82.26 0.62L82.26 0.62Q81.74 0.57 80.94 0.47L80.94 0.47L80.94 0.47Q80.13 0.36 78.55-0.31L78.55-0.31L78.55-0.31Q76.96-0.99 76.39-2.08L76.39-2.08L76.39-2.08Q74.46 0.57 70.82 0.57" fill="#220b09" stroke="none" stroke-width="none" transform="translate(-125.78997802734375,13.72797063946724)" style="fill: rgb(245, 192, 55);"></path></g><g class="path" style="transform: scale(0.91); transform-origin: -24.235px -16.252px; animation: 1s linear -0.4125s infinite normal forwards running breath-2866b346-9693-4bd6-97f9-10f7259a099d;"><path d="M102.49-27.82L102.49-27.82L101.24-27.87L101.24-27.87Q99.84-27.87 99.42-27.20L99.42-27.20L99.42-27.20Q99.32-27.04 99.16-27.04L99.16-27.04L99.16-27.04Q98.49-27.04 98.49-29.35L98.49-29.35L98.49-29.35Q98.49-31.67 99.19-32.29L99.19-32.29L99.19-32.29Q99.89-32.92 101.63-32.92L101.63-32.92L101.63-32.92Q103.38-32.92 104.00-32.32L104.00-32.32L104.00-32.32Q104.62-31.72 104.62-30.32L104.62-30.32L104.62-30.32Q104.62-28.91 104.16-28.37L104.16-28.37L104.16-28.37Q103.69-27.82 102.49-27.82" fill="#220b09" stroke="none" stroke-width="none" transform="translate(-125.78997802734375,13.72797063946724)" style="fill: rgb(232, 151, 136);"></path></g><g class="path" style="transform: scale(0.91); transform-origin: -24.91px 2.57297px; animation: 1s linear -0.37125s infinite normal forwards running breath-2866b346-9693-4bd6-97f9-10f7259a099d;"><path d="M98.33-1.56L98.33-1.56L98.90-13.68L98.90-13.68Q98.90-17.99 97.92-19.55L97.92-19.55L97.92-19.55Q97.60-20.07 97.19-20.33L97.19-20.33L97.19-20.33Q96.88-20.44 96.88-20.75L96.88-20.75L96.88-20.75Q96.88-21.68 99.53-22.57L99.53-22.57L99.53-22.57Q102.18-23.45 103.40-23.45L103.40-23.45L103.40-23.45Q104.62-23.45 104.68-22.83L104.68-22.83L104.68-22.83Q104.68-21.79 104.39-16.93L104.39-16.93L104.39-16.93Q104.10-12.06 104.10-6.71L104.10-6.71L104.10-6.71Q104.10-1.35 104.73-0.05L104.73-0.05L104.73-0.05Q104.88 0.21 104.88 0.47L104.88 0.47L104.88 0.47Q104.88 1.14 102.91 1.14L102.91 1.14L102.91 1.14Q100.93 1.14 98.85 0.10L98.85 0.10L98.85 0.10Q98.33-0.16 98.33-1.56" fill="#220b09" stroke="none" stroke-width="none" transform="translate(-125.78997802734375,13.72797063946724)" style="fill: rgb(253, 50, 98);"></path></g><g class="path" style="transform: scale(0.91); transform-origin: -9.27998px 2.36297px; animation: 1s linear -0.33s infinite normal forwards running breath-2866b346-9693-4bd6-97f9-10f7259a099d;"><path d="M125.06-5.98L125.06-5.98L125.06-5.98Q125.06-3.02 122.69-1.07L122.69-1.07L122.69-1.07Q120.33 0.88 117.05 0.88L117.05 0.88L117.05 0.88Q112.27 0.88 110.03-2.00L110.03-2.00L110.03-2.00Q107.80-4.89 107.80-9.83L107.80-9.83L107.80-9.83Q107.80-15.08 110.14-19.14L110.14-19.14L110.14-19.14Q111.28-21.22 113.41-22.41L113.41-22.41L113.41-22.41Q115.54-23.61 118.40-23.61L118.40-23.61L118.40-23.61Q122.72-23.61 124.49-20.70L124.49-20.70L124.49-20.70Q125.22-19.50 125.22-17.89L125.22-17.89L125.22-17.89Q125.22-15.39 123.14-14.14L123.14-14.14L123.14-14.14Q122.30-13.68 121.60-13.68L121.60-13.68L121.60-13.68Q120.90-13.68 120.46-13.75L120.46-13.75L120.46-13.75Q120.02-13.83 119.29-14.46L119.29-14.46L119.29-14.46Q118.56-15.08 118.56-16.17L118.56-16.17L118.56-16.17Q118.61-16.74 119.44-17.11L119.44-17.11L119.44-17.11Q120.22-17.58 120.22-18.77L120.22-18.77L120.22-18.77Q120.22-20.80 117.73-20.80L117.73-20.80L117.73-20.80Q117.10-20.80 116.25-20.25L116.25-20.25L116.25-20.25Q115.39-19.71 114.82-18.85L114.82-18.85L114.82-18.85Q114.24-17.99 113.75-16.15L113.75-16.15L113.75-16.15Q113.26-14.30 113.26-12.61L113.26-12.61L113.26-12.61Q113.26-10.92 113.39-10.06L113.39-10.06L113.39-10.06Q113.52-9.20 113.96-7.72L113.96-7.72L113.96-7.72Q114.40-6.24 115.62-5.30L115.62-5.30L115.62-5.30Q116.84-4.37 118.66-4.37L118.66-4.37L118.66-4.37Q120.85-4.37 122.51-6.19L122.51-6.19L122.51-6.19Q123.19-6.92 123.60-7.96L123.60-7.96L123.60-7.96Q123.81-8.37 124.12-8.37L124.12-8.37L124.12-8.37Q124.59-8.37 124.83-7.51L124.83-7.51L124.83-7.51Q125.06-6.66 125.06-5.98" fill="#220b09" stroke="none" stroke-width="none" transform="translate(-125.78997802734375,13.72797063946724)" style="fill: rgb(240, 195, 169);"></path></g><g class="path" style="transform: scale(0.91); transform-origin: 7.07002px -0.80703px; animation: 1s linear -0.28875s infinite normal forwards running breath-2866b346-9693-4bd6-97f9-10f7259a099d;"><path d="M127.04-20.28L127.04-20.28L127.19-22.36L127.19-22.36Q127.24-22.83 127.92-22.83L127.92-22.83L129.74-22.83L129.53-26.99L129.53-27.20L129.53-27.20Q129.53-28.39 131.35-29.48L131.35-29.48L131.35-29.48Q133.17-30.58 134.68-30.58L134.68-30.58L134.68-30.58Q135.15-30.58 135.15-30.16L135.15-30.16L135.15-30.11L135.15-30.11Q134.94-28.70 134.73-22.88L134.73-22.88L134.73-22.88Q137.02-22.88 137.64-22.98L137.64-22.98L137.64-22.98Q138.27-23.09 138.32-23.09L138.32-23.09L138.32-23.09Q138.68-23.09 138.68-22.46L138.68-22.46L138.68-22.46Q138.68-21.84 138.11-20.88L138.11-20.88L138.11-20.88Q137.54-19.92 136.86-19.86L136.86-19.86L134.68-19.86L134.68-19.86Q134.63-18.10 134.63-13.91L134.63-13.91L134.63-13.91Q134.63-9.72 134.71-7.02L134.71-7.02L134.71-7.02Q134.78-4.32 134.89-2.94L134.89-2.94L134.89-2.94Q134.99-1.56 135.12-0.73L135.12-0.73L135.12-0.73Q135.25 0.10 135.33 0.47L135.33 0.47L135.33 0.47Q135.41 0.83 135.41 0.94L135.41 0.94L135.41 0.94Q135.41 1.46 134.73 1.51L134.73 1.51L134.73 1.51Q132.70 1.51 130.70 0.94L130.70 0.94L130.70 0.94Q128.70 0.36 128.70-1.04L128.70-1.04L128.70-1.04Q129.79-9.78 129.79-19.81L129.79-19.81L129.79-19.81Q128.39-19.81 127.66-19.71L127.66-19.71L127.61-19.71L127.61-19.71Q127.14-19.71 127.04-20.28" fill="#220b09" stroke="none" stroke-width="none" transform="translate(-125.78997802734375,13.72797063946724)" style="fill: rgb(157, 154, 202);"></path></g><g class="path" style="transform: scale(0.91); transform-origin: 18.095px -16.252px; animation: 1s linear -0.2475s infinite normal forwards running breath-2866b346-9693-4bd6-97f9-10f7259a099d;"><path d="M144.82-27.82L144.82-27.82L143.57-27.87L143.57-27.87Q142.17-27.87 141.75-27.20L141.75-27.20L141.75-27.20Q141.65-27.04 141.49-27.04L141.49-27.04L141.49-27.04Q140.82-27.04 140.82-29.35L140.82-29.35L140.82-29.35Q140.82-31.67 141.52-32.29L141.52-32.29L141.52-32.29Q142.22-32.92 143.96-32.92L143.96-32.92L143.96-32.92Q145.70-32.92 146.33-32.32L146.33-32.32L146.33-32.32Q146.95-31.72 146.95-30.32L146.95-30.32L146.95-30.32Q146.95-28.91 146.48-28.37L146.48-28.37L146.48-28.37Q146.02-27.82 144.82-27.82" fill="#220b09" stroke="none" stroke-width="none" transform="translate(-125.78997802734375,13.72797063946724)" style="fill: rgb(100, 84, 129);"></path></g><g class="path" style="transform: scale(0.91); transform-origin: 17.415px 2.57297px; animation: 1s linear -0.20625s infinite normal forwards running breath-2866b346-9693-4bd6-97f9-10f7259a099d;"><path d="M140.66-1.56L140.66-1.56L141.23-13.68L141.23-13.68Q141.23-17.99 140.24-19.55L140.24-19.55L140.24-19.55Q139.93-20.07 139.52-20.33L139.52-20.33L139.52-20.33Q139.20-20.44 139.20-20.75L139.20-20.75L139.20-20.75Q139.20-21.68 141.86-22.57L141.86-22.57L141.86-22.57Q144.51-23.45 145.73-23.45L145.73-23.45L145.73-23.45Q146.95-23.45 147.00-22.83L147.00-22.83L147.00-22.83Q147.00-21.79 146.72-16.93L146.72-16.93L146.72-16.93Q146.43-12.06 146.43-6.71L146.43-6.71L146.43-6.71Q146.43-1.35 147.06-0.05L147.06-0.05L147.06-0.05Q147.21 0.21 147.21 0.47L147.21 0.47L147.21 0.47Q147.21 1.14 145.24 1.14L145.24 1.14L145.24 1.14Q143.26 1.14 141.18 0.10L141.18 0.10L141.18 0.10Q140.66-0.16 140.66-1.56" fill="#220b09" stroke="none" stroke-width="none" transform="translate(-125.78997802734375,13.72797063946724)" style="fill: rgb(34, 11, 9);"></path></g><g class="path" style="transform: scale(0.91); transform-origin: 33.93px 2.49797px; animation: 1s linear -0.165s infinite normal forwards running breath-2866b346-9693-4bd6-97f9-10f7259a099d;"><path d="M155.32-19.60L155.32-19.60L155.32-19.60Q153.97-19.55 153.37-19.53L153.37-19.53L153.37-19.53Q152.78-19.50 152.78-19.81L152.78-19.81L152.78-19.81Q152.78-20.12 153.09-20.44L153.09-20.44L153.09-20.44Q156.42-23.50 164.32-23.50L164.32-23.50L164.32-23.50Q167.02-23.50 168.58-23.04L168.58-23.04L169.10-22.88L169.10-22.88Q169.73-22.62 169.73-22.31L169.73-22.31L169.73-22.31Q169.73-22.05 169.36-21.89L169.36-21.89L169.36-21.89Q167.96-21.48 166.66-20.57L166.66-20.57L166.66-20.57Q165.36-19.66 165.36-19.29L165.36-19.29L165.67-18.93L165.67-18.93Q167.34-17.99 168.25-15.96L168.25-15.96L168.25-15.96Q169.16-13.94 169.26-12.38L169.26-12.38L169.36-10.76L169.36-10.76Q169.36-5.62 166.50-2.29L166.50-2.29L166.50-2.29Q163.64 1.04 158.70 1.04L158.70 1.04L158.70 1.04Q156.21 1.04 154.39 0.16L154.39 0.16L154.39 0.16Q152.57-0.73 151.71-1.85L151.71-1.85L151.71-1.85Q150.85-2.96 150.33-4.37L150.33-4.37L150.33-4.37Q149.71-6.29 149.71-8.35L149.71-8.35L149.71-8.35Q149.71-10.40 150.41-12.48L150.41-12.48L150.41-12.48Q151.11-14.56 152.02-15.55L152.02-15.55L152.02-15.55Q152.93-16.54 154.08-17.16L154.08-17.16L154.08-17.16Q155.53-17.94 156.42-17.94L156.42-17.94L156.42-17.94Q157.30-17.94 157.30-17.58L157.30-17.58L156.99-17.06L156.99-17.06Q155.84-15.70 155.35-13.52L155.35-13.52L155.35-13.52Q154.86-11.34 154.86-9.65L154.86-9.65L154.86-9.65Q154.86-7.96 155.27-6.29L155.27-6.29L155.27-6.29Q155.69-4.63 156.21-3.82L156.21-3.82L156.21-3.82Q156.73-3.02 157.40-2.60L157.40-2.60L157.40-2.60Q158.39-1.98 159.48-1.98L159.48-1.98L159.48-1.98Q160.58-1.98 161.62-2.83L161.62-2.83L161.62-2.83Q162.66-3.69 163.12-5.10L163.12-5.10L163.12-5.10Q164.06-7.70 164.06-10.45L164.06-10.45L164.06-10.45Q164.06-14.82 161.85-17.21L161.85-17.21L161.85-17.21Q159.64-19.60 155.32-19.60" fill="#220b09" stroke="none" stroke-width="none" transform="translate(-125.78997802734375,13.72797063946724)" style="fill: rgb(211, 76, 49);"></path></g><g class="path" style="transform: scale(0.91); transform-origin: 55.635px 2.36797px; animation: 1s linear -0.12375s infinite normal forwards running breath-2866b346-9693-4bd6-97f9-10f7259a099d;"><path d="M171.91 0.36L171.91 0.36L171.91 0.36Q172.85-5.25 172.85-13.10L172.85-13.10L172.85-13.10Q172.85-20.96 172.38-23.30L172.38-23.30L172.38-23.30Q172.38-23.97 173.94-23.97L173.94-23.97L173.94-23.97Q176.33-23.97 177.11-22.15L177.11-22.15L177.11-22.15Q177.16-22.00 177.37-22.00L177.37-22.00L177.37-22.00Q177.58-22.00 177.68-22.10L177.68-22.10L177.68-22.10Q179.30-23.76 182.68-23.76L182.68-23.76L182.68-23.76Q186.06-23.76 188.03-22.05L188.03-22.05L188.03-22.05Q190.01-20.33 190.01-17.06L190.01-17.06L190.01-17.06Q190.01-15.08 189.67-11.44L189.67-11.44L189.67-11.44Q189.33-7.80 189.33-6.03L189.33-6.03L189.33-6.03Q189.33-1.82 190.74 0.05L190.74 0.05L190.74 0.05Q190.94 0.31 190.94 0.57L190.94 0.57L190.94 0.57Q190.94 1.25 189.49 1.25L189.49 1.25L189.49 1.25Q183.04 1.25 183.04-4.47L183.04-4.47L183.04-4.47Q183.04-6.66 184.03-10.56L184.03-10.56L184.03-10.56Q185.02-14.46 185.02-16.48L185.02-16.48L185.02-16.48Q185.02-20.64 181.58-20.64L181.58-20.64L181.58-20.64Q179.92-20.64 179.06-19.66L179.06-19.66L179.06-19.66Q178.20-18.67 178.10-17.39L178.10-17.39L178.10-17.39Q178.00-16.12 178.00-12.58L178.00-12.58L178.00-12.58Q178.00-7.18 178.36-3.17L178.36-3.17L178.46-2.03L178.46-2.03Q178.46-0.57 176.57 0.23L176.57 0.23L176.57 0.23Q174.67 1.04 173.29 1.04L173.29 1.04L173.29 1.04Q171.91 1.04 171.91 0.36" fill="#220b09" stroke="none" stroke-width="none" transform="translate(-125.78997802734375,13.72797063946724)" style="fill: rgb(232, 132, 50);"></path></g><g class="path" style="transform: scale(0.91); transform-origin: 75.865px 2.31797px; animation: 1s linear -0.0825s infinite normal forwards running breath-2866b346-9693-4bd6-97f9-10f7259a099d;"><path d="M210.03-15.60L210.03-15.60L209.92-8.94L209.92-8.94Q209.92-2.03 211.43-0.62L211.43-0.62L211.43-0.62Q211.64-0.42 211.64-0.16L211.64-0.16L211.64-0.16Q211.64 0.62 208.29 0.62L208.29 0.62L208.29 0.62Q204.93 0.62 204.72-1.35L204.72-1.35L204.72-1.35Q204.67-1.82 204.67-3.28L204.67-3.28L204.88-11.60L204.88-11.60Q204.88-11.96 204.46-11.96L204.46-11.96L204.46-11.96Q201.97-11.96 199.78-10.56L199.78-10.56L199.78-10.56Q197.60-9.15 197.60-6.97L197.60-6.97L197.60-6.97Q197.60-5.82 198.22-5.04L198.22-5.04L198.22-5.04Q198.85-4.26 199.76-4.26L199.76-4.26L199.76-4.26Q200.67-4.26 201.27-4.63L201.27-4.63L201.27-4.63Q201.86-4.99 201.97-5.04L201.97-5.04L201.97-5.04Q202.85-4.94 202.85-3.20L202.85-3.20L202.85-3.20Q202.85-1.46 201.24-0.39L201.24-0.39L201.24-0.39Q199.63 0.68 197.86 0.68L197.86 0.68L197.86 0.68Q196.09 0.68 194.82 0.05L194.82 0.05L194.82 0.05Q193.54-0.57 192.97-1.35L192.97-1.35L192.97-1.35Q192.40-2.13 192.04-3.12L192.04-3.12L192.04-3.12Q191.67-4.32 191.67-5.20L191.67-5.20L191.67-5.20Q191.67-8.84 193.96-11.02L193.96-11.02L193.96-11.02Q196.25-13.21 199.84-14.14L199.84-14.14L199.84-14.14Q204.57-15.08 204.78-15.86L204.78-15.86L204.78-15.86Q204.93-16.43 204.93-17.78L204.93-17.78L204.93-17.78Q204.93-20.54 202.12-20.54L202.12-20.54L202.12-20.54Q200.93-20.54 199.99-19.79L199.99-19.79L199.99-19.79Q199.06-19.03 199.06-17.89L199.06-17.89L199.37-16.64L199.37-16.64Q199.26-15.76 197.50-15.60L197.50-15.60L196.92-15.55L196.92-15.55Q195.36-15.55 194.45-16.33L194.45-16.33L194.45-16.33Q193.54-17.11 193.54-18.41L193.54-18.41L193.54-18.41Q193.54-19.24 194.09-20.25L194.09-20.25L194.09-20.25Q194.64-21.27 195.47-21.89L195.47-21.89L195.47-21.89Q196.30-22.52 198.04-23.01L198.04-23.01L198.04-23.01Q199.78-23.50 201.40-23.50L201.40-23.50L201.40-23.50Q203.01-23.50 203.89-23.40L203.89-23.40L203.89-23.40Q204.78-23.30 206.31-22.91L206.31-22.91L206.31-22.91Q207.84-22.52 208.86-21.42L208.86-21.42L208.86-21.42Q209.87-20.33 209.95-19.11L209.95-19.11L209.95-19.11Q210.03-17.89 210.03-15.60" fill="#220b09" stroke="none" stroke-width="none" transform="translate(-125.78997802734375,13.72797063946724)" style="fill: rgb(255, 49, 45);"></path></g><g class="path" style="transform: scale(0.91); transform-origin: 95.47px 2.31297px; animation: 1s linear -0.04125s infinite normal forwards running breath-2866b346-9693-4bd6-97f9-10f7259a099d;"><path d="M229.32-17.89L229.06-13.94L229.27-12.12L229.27-12.12Q229.27-11.13 227.40-11.13L227.40-11.13L227.40-11.13Q223.60-11.13 223.60-13.99L223.60-13.99L223.60-13.99Q223.60-14.66 223.96-15.86L223.96-15.86L223.96-15.86Q224.33-17.06 224.33-17.94L224.33-17.94L224.33-17.94Q224.33-18.82 223.81-19.47L223.81-19.47L223.81-19.47Q223.29-20.12 222.30-20.12L222.30-20.12L222.30-20.12Q221.31-20.12 220.61-19.42L220.61-19.42L220.61-19.42Q219.91-18.72 219.75-17.99L219.75-17.99L219.54-17.26L219.54-17.26Q219.23-15.65 219.23-11.88L219.23-11.88L219.23-11.88Q219.23-8.11 219.34-5.95L219.34-5.95L219.34-5.95Q219.44-3.80 219.54-2.99L219.54-2.99L219.54-2.99Q219.65-2.18 219.65-2.03L219.65-2.03L219.65-2.03Q219.65-0.73 218.04 0.08L218.04 0.08L218.04 0.08Q216.42 0.88 214.81 0.88L214.81 0.88L214.81 0.88Q213.20 0.88 213.20 0.21L213.20 0.21L213.46-1.40L213.46-1.40Q214.19-5.93 214.19-13.21L214.19-13.21L214.19-13.21Q214.19-20.49 213.67-23.09L213.67-23.09L213.67-23.09Q213.67-23.71 214.76-23.71L214.76-23.71L214.76-23.71Q217.57-23.71 218.50-21.79L218.50-21.79L218.50-21.79Q218.56-21.58 218.69-21.58L218.69-21.58L218.69-21.58Q218.82-21.58 219.39-22.05L219.39-22.05L219.39-22.05Q221.10-23.45 223.44-23.45L223.44-23.45L223.44-23.45Q224.90-23.45 226.36-22.88L226.36-22.88L226.36-22.88Q229.32-21.68 229.32-17.89L229.32-17.89" fill="#220b09" stroke="none" stroke-width="none" transform="translate(-125.78997802734375,13.72797063946724)" style="fill: rgb(245, 192, 55);"></path></g><g class="path" style="transform: scale(0.91); transform-origin: 114.27px 9.30797px; animation: 1s linear 0s infinite normal forwards running breath-2866b346-9693-4bd6-97f9-10f7259a099d;"><path d="M240.86 14.40L240.86 14.40L240.86 14.40Q240.86 15.03 240.24 15.03L240.24 15.03L240.19 15.03L240.19 15.03Q238.47 15.03 236.31 13.83L236.31 13.83L236.31 13.83Q234.16 12.64 234.16 11.08L234.16 11.08L234.16 11.08Q234.16 9.52 236.13 5.64L236.13 5.64L236.13 5.64Q238.11 1.77 238.11 0.47L238.11 0.47L238.11 0.47Q238.11-0.94 236.76-4.58L236.76-4.58L236.76-4.58Q235.04-9.31 234.03-12.27L234.03-12.27L234.03-12.27Q233.01-15.24 231.84-17.50L231.84-17.50L231.84-17.50Q230.67-19.76 230.15-20.18L230.15-20.18L229.63-20.54L229.63-20.54Q229.06-20.85 229.06-21.22L229.06-21.22L229.06-21.22Q229.06-21.94 231.32-22.70L231.32-22.70L231.32-22.70Q233.58-23.45 235.30-23.45L235.30-23.45L235.30-23.45Q236.08-23.45 236.60-22.20L236.60-22.20L236.60-22.20Q237.54-19.76 238.63-15.44L238.63-15.44L238.63-15.44Q241.28-6.60 241.96-6.60L241.96-6.60L241.96-6.60Q242.42-6.60 243.85-10.24L243.85-10.24L243.85-10.24Q245.28-13.88 245.28-16.12L245.28-16.12L245.28-16.12Q245.28-20.02 243.00-20.70L243.00-20.70L243.00-20.70Q242.48-20.80 242.48-21.22L242.48-21.22L242.48-21.22Q242.48-22.15 244.92-23.01L244.92-23.01L244.92-23.01Q247.36-23.87 249.34-23.87L249.34-23.87L249.34-23.87Q251.06-23.87 251.06-21.63L251.06-21.63L251.06-21.63Q251.06-19.92 250.33-17.63L250.33-17.63L250.33-17.63Q249.60-15.34 248.98-14.01L248.98-14.01L248.98-14.01Q248.35-12.69 245.88-7.88L245.88-7.88L245.88-7.88Q243.41-3.07 241.80 0.57L241.80 0.57L241.80 0.57Q240.03 4.94 240.03 9.46L240.03 9.46L240.03 9.46Q240.03 11.86 240.45 13.05L240.45 13.05L240.45 13.05Q240.86 14.25 240.86 14.40" fill="#220b09" stroke="none" stroke-width="none" transform="translate(-125.78997802734375,13.72797063946724)" style="fill: rgb(232, 151, 136);"></path></g></g>
</g>
</g>
<style id="breath-2866b346-9693-4bd6-97f9-10f7259a099d" data-anikit="">@keyframes breath-2866b346-9693-4bd6-97f9-10f7259a099d
{
  0% {
    animation-timing-function: cubic-bezier(0.9647,0.2413,-0.0705,0.7911);
    transform: scale(0.9099999999999999);
  }
  51% {
    animation-timing-function: cubic-bezier(0.9226,0.2631,-0.0308,0.7628);
    transform: scale(1.02994);
  }
  100% {
    transform: scale(0.9099999999999999);
  }
}</style></svg>